<?xml version="1.0" standalone="no"?>
<!DOCTYPE svg PUBLIC "-//W3C//DTD SVG 1.1//EN" "http://www.w3.org/Graphics/SVG/1.1/DTD/svg11.dtd" >
<!--
2013-9-30: Created.
-->
<svg>
<metadata>
Created by iconfont
</metadata>
<defs>

<font id="element-icons" horiz-adv-x="1024" >
  <font-face
    font-family="element-icons"
    font-weight="500"
    font-stretch="normal"
    units-per-em="1024"
    ascent="896"
    descent="-128"
  />
    <missing-glyph />
    
    <glyph glyph-name="crop" unicode="&#59018;" d="M374.5 108l297.5 0 0 297.5zm-22.5 22.5l297.5 297.5-297.5 0 0-297.5zm576-38.5l0-96q0-7-4.5-11.5t-11.5-4.5l-112 0 0-112q0-7-4.5-11.5t-11.5-4.5l-96 0q-7 0-11.5 4.5t-4.5 11.5l0 112-432 0q-7 0-11.5 4.5t-4.5 11.5l0 432-112 0q-7 0-11.5 4.5t-4.5 11.5l0 96q0 7 4.5 11.5t11.5 4.5l112 0 0 112q0 7 4.5 11.5t11.5 4.5l96 0q7 0 11.5-4.5t4.5-11.5l0-112 425.5 0 123 123.5q5 4.5 11.5 4.5t11.5-4.5q4.5-5 4.5-11.5t-4.5-11.5l-123.5-123 0-425.5 112 0q7 0 11.5-4.5t4.5-11.5z"  horiz-adv-x="1024" />

    
    <glyph glyph-name="pwdp" unicode="&#58916;" d="M736.081846 594.685403c-16.045627-4.304924-32.542819 5.208055-36.862796 21.283787l-12.794355 50.771013c-27.018668 100.834573-119.183184 160.787417-223.735646 132.775305-105.636219-28.298104-151.77116-127.130736-125.204057-226.264413l20.335499-91.216228c4.304924-16.075731-5.223107-32.572924-21.298839-36.877848-16.060679-4.304924-32.557872 5.208055-36.862796 21.283787l-20.335499 91.23128c-35.161899 131.22493 30.089314 263.112156 167.786682 300.005057 137.15549 36.742378 261.727356-41.905277 297.47629-175.342878l12.809408-50.771013C761.700661 615.4724679999999 752.17263 598.990328 736.081846 594.685403zM782.954344-98.72350400000005l-541.878583 0c-66.410231 0-120.417463 54.007232-120.417463 120.417463l0 361.252389c0 66.410231 54.007232 120.417463 120.417463 120.417463l541.878583 0c66.410231 0 120.417463-54.007232 120.417463-120.417463l0-361.252389C903.371807-44.716272000000004 849.364574-98.72350400000005 782.954344-98.72350400000005zM241.075761 443.155079c-33.190063 0-60.208731-27.018668-60.208731-60.208731l0-361.252389c0-33.190063 27.018668-60.208731 60.208731-60.208731l541.878583 0c33.190063 0 60.208731 27.018668 60.208731 60.208731l0 361.252389c0 33.190063-27.018668 60.208731-60.208731 60.208731L241.075761 443.155079zM512.015052 322.737616c33.250272 0 60.208731-26.95846 60.208731-60.208731s-26.95846-60.208731-60.208731-60.208731-60.208731 26.95846-60.208731 60.208731S478.76478 322.737616 512.015052 322.737616zM512.015052 262.52888399999995c16.61761 0 30.104366-13.471704 30.104366-30.104366l0-120.417463c0-16.61761-13.486756-30.104366-30.104366-30.104366-16.632662 0-30.104366 13.486756-30.104366 30.104366l0 120.417463C481.910686 249.07223299999998 495.367338 262.52888399999995 512.015052 262.52888399999995z"  horiz-adv-x="1024" />

    
    <glyph glyph-name="zoom-out" unicode="&#59034;" d="M426.656 832q78.016 0 149.152-30.496t122.496-81.824 81.824-122.496 30.496-149.152q0-67.008-21.824-128.32t-62.176-111.328l242.336-242.016q12.32-12.32 12.32-30.336 0-18.336-12.16-30.496t-30.496-12.16q-18.016 0-30.336 12.32l-242.016 242.336q-50.016-40.32-111.328-62.176t-128.32-21.824q-78.016 0-149.152 30.496t-122.496 81.824-81.824 122.496-30.496 149.152 30.496 149.152 81.824 122.496 122.496 81.824 149.152 30.496zM426.656 746.656q-60.672 0-116-23.68t-95.328-63.68-63.68-95.328-23.68-116 23.68-116 63.68-95.328 95.328-63.68 116-23.68 116 23.68 95.328 63.68 63.68 95.328 23.68 116-23.68 116-63.68 95.328-95.328 63.68-116 23.68zM298.656 490.656l256 0q17.664 0 30.176-12.512t12.512-30.176-12.512-30.176-30.176-12.512l-256 0q-17.664 0-30.176 12.512t-12.512 30.176 12.512 30.176 30.176 12.512z"  horiz-adv-x="1024" />

    
    <glyph glyph-name="zoomin" unicode="&#58880;" d="M384 128c-213.333333 0-384 170.666667-384 384s170.666667 384 384 384 384-170.666667 384-384S597.333333 128 384 128zM384 810.666667C217.6 810.666667 85.333333 678.4 85.333333 512s132.266667-298.666667 298.666667-298.666667 298.666667 132.266667 298.666667 298.666667S550.4 810.666667 384 810.666667zM981.333333-128c-12.8 0-21.333333 4.266667-29.866667 12.8L597.333333 238.93333299999995c-17.066667 17.066667-17.066667 42.666667 0 59.733333s42.666667 17.066667 59.733333 0l354.133333-354.133333c17.066667-17.066667 17.066667-42.666667 0-59.733333C1002.666667-123.73333300000002 994.133333-128 981.333333-128zM512 469.333333L256 469.333333c-25.6 0-42.666667 17.066667-42.666667 42.666667s17.066667 42.666667 42.666667 42.666667l256 0c25.6 0 42.666667-17.066667 42.666667-42.666667S537.6 469.333333 512 469.333333zM384 341.33333300000004c-25.6 0-42.666667 17.066667-42.666667 42.666667L341.333333 640c0 25.6 17.066667 42.666667 42.666667 42.666667s42.666667-17.066667 42.666667-42.666667l0-256C426.666667 358.4 409.6 341.33333300000004 384 341.33333300000004z"  horiz-adv-x="1024" />

    
    <glyph glyph-name="undo" unicode="&#59556;" d="M512 832c-141.376 0-269.376-57.312-362.016-149.984L0 832l0-384 384 0-143.52 143.52C309.952 661.024 405.952 704 512 704c212.064 0 384-171.936 384-384 0-114.688-50.304-217.632-130.016-288l84.672-96C956.96 29.823999999999955 1024 167.072 1024 320 1024 602.784 794.784 832 512 832z"  horiz-adv-x="1024" />

    
    <glyph glyph-name="rotate-left" unicode="&#59462;" d="M569.591 798.376c-226.229 0-410.269-181.299-415.799-406.928h-125.044l187.239-208.697 187.207 208.697h-145.36c5.5 168.019 142.938 302.579 311.756 302.579 172.389 0 312.064-140.123 312.064-313.015 0-172.911-139.645-313.018-312.064-313.018-69.061 0-132.905 22.585-184.599 60.703l-71.577-76.516c70.583-55.42 159.497-88.506 256.178-88.506 229.798 0 416.108 186.86 416.108 417.365-0.062 230.507-186.37 417.365-416.108 417.365v-0.03z"  horiz-adv-x="1024" />

    
    <glyph glyph-name="rotate-right" unicode="&#58907;" d="M453.475072 773.119345l0 0.026606c-214.94956 0-389.267724-174.832887-389.326053-390.500808 0-215.672014 174.321234-390.504902 389.326053-390.504902 90.457198 0 173.650969 30.957059 239.689011 82.810031l-66.970274 71.592548c-48.363498-35.666314-108.101043-56.795541-172.71362-56.795541-161.324222 0-291.979958 131.089617-291.979958 292.871257 0 161.762197 130.682341 292.866141 291.979958 292.866141 157.948335 0 286.544155-125.899408 291.687292-283.102776L609.1619 392.381901l175.158299-195.264219 175.190021 195.264219L842.514599 392.381901C837.338716 603.487923 665.145959 773.119345 453.475072 773.119345L453.475072 773.119345zM453.475072 773.119345"  horiz-adv-x="1024" />

    
    <glyph glyph-name="download" unicode="&#58961;" d="M952.977945-83.420689 511.555373-83.420689l0 0-0.064468 0L70.072427-83.420689c-31.813566 0-57.567113 26.421766-57.567113 58.965973L12.505313 270.423245c0 32.544207 25.753547 58.962903 57.567113 58.962903 31.807427 0 57.627489-26.418696 57.627489-58.962903l0-235.918128 767.711939 0L895.411855 270.423245c0 32.544207 25.821085 58.962903 57.567113 58.962903 31.809473 0 57.567113-26.418696 57.567113-58.962903l0-294.876937C1010.545058-56.997899 984.787418-83.420689 952.977945-83.420689zM727.044216 447.176878 554.347992 250.591571l-0.064468 0c-10.518564-11.978822-25.756617-19.4991-42.72815-19.4991-17.034978 0-32.274054 7.520277-42.857087 19.4991l0 0L296.005133 447.176878l0 0c-9.184173 10.44898-14.773472 24.291243-14.773472 39.463804 0 32.543184 25.755594 58.96188 57.561997 58.96188 17.037025 0 32.210609-7.520277 42.792619-19.4991l0 0 72.341608-82.387405L453.927885 801.151795l0 0c0 32.54216 25.819039 58.962903 57.627489 58.962903 31.813566 0 57.568137-26.420743 57.568137-58.962903l0 0 0-357.434715 72.335469 82.387405 0 0c10.517541 11.978822 25.821085 19.4991 42.85811 19.4991 31.743982 0 57.497529-26.418696 57.497529-58.96188C741.815641 471.468121 736.225319 457.625858 727.044216 447.176878L727.044216 447.176878z"  horiz-adv-x="1024" />

    
    <glyph glyph-name="ok" unicode="&#58925;" d="M346.595344 211.50434399999995L135.774825 422.324864l-71.492264-71.447239 282.312784-282.268782 606.406137 606.358041-71.447239 71.492264L346.595344 211.50434399999995z"  horiz-adv-x="1024" />

    
    <glyph glyph-name="menuoff" unicode="&#59260;" d="M576 640 96 640C76.8 640 64 652.8 64 672s12.8 32 32 32l480 0c19.2 0 32-12.8 32-32S595.2 640 576 640zM576 352 96 352c-19.2 0-32 12.8-32 32s12.8 32 32 32l480 0c19.2 0 32-12.8 32-32S595.2 352 576 352zM928 64 96 64c-19.2 0-32 12.8-32 32s12.8 32 32 32l832 0c19.2 0 32-12.8 32-32S947.2 64 928 64zM928 352c9.6 0 16 3.2 22.4 9.6 12.8 12.8 9.6 32-3.2 44.8l-134.4 121.6 134.4 121.6c12.8 12.8 12.8 32 3.2 44.8-12.8 12.8-32 12.8-44.8 3.2l-160-144c-6.4-6.4-9.6-16-9.6-22.4s3.2-19.2 9.6-22.4l160-144C912 355.2 921.6 352 928 352z"  horiz-adv-x="1024" />

    
    <glyph glyph-name="menuon" unicode="&#59261;" d="M576 640 96 640C76.8 640 64 652.8 64 672s12.8 32 32 32l480 0c19.2 0 32-12.8 32-32S595.2 640 576 640zM576 352 96 352c-19.2 0-32 12.8-32 32s12.8 32 32 32l480 0c19.2 0 32-12.8 32-32S595.2 352 576 352zM928 64 96 64c-19.2 0-32 12.8-32 32s12.8 32 32 32l832 0c19.2 0 32-12.8 32-32S947.2 64 928 64zM768 352c-9.6 0-16 3.2-22.4 9.6-12.8 12.8-9.6 32 3.2 44.8l134.4 121.6-134.4 121.6c-12.8 12.8-12.8 32-3.2 44.8 12.8 12.8 32 12.8 44.8 3.2l160-144c6.4-6.4 9.6-16 9.6-22.4s-3.2-19.2-9.6-22.4l-160-144C784 355.2 774.4 352 768 352z"  horiz-adv-x="1024" />

    
    <glyph glyph-name="eidt" unicode="&#58900;" d="M775.168 714.5472l-108.3392 63.8976c-17.408 10.24-36.352 15.1552-55.0912 15.1552-38.0928 0-75.1616-20.1728-95.6416-56.2176L321.9456 393.8304c-30.208-53.4528-54.784-148.1728-54.4768-210.5344 0 0-5.5296-186.5728 28.9792-206.9504 2.2528-1.3312 5.3248-1.9456 9.0112-1.9456 42.496 0 167.1168 85.2992 167.1168 85.2992 52.5312 32.8704 118.5792 103.424 148.992 157.2864l194.1504 343.552C845.9264 614.0928 828.0064 683.4176 775.168 714.5472zM577.024 242.17600000000004c-26.8288-47.5136-87.1424-111.3088-133.3248-140.288-21.9136-14.9504-44.9536-29.3888-66.2528-41.6768l-57.4464 33.8944c-1.6384 27.648-2.2528 58.7776-1.3312 89.4976-0.3072 52.9408 22.016 139.3664 47.8208 185.0368l39.936 70.656 114.9952-67.8912 26.0096 44.1344-115.8144 68.3008 18.0224 31.9488 114.9952-67.8912 26.0096 44.1344-115.8144 68.3008 39.7312 70.2464L726.016 505.9584 577.024 242.17600000000004zM771.072 585.7280000000001l-19.968-35.2256L539.7504 675.2256l20.8896 36.864c10.5472 18.6368 30.1056 30.208 50.9952 30.208 10.24 0 20.0704-2.6624 29.0816-7.9872l108.3392-63.8976C777.5232 653.7216 787.5584 614.912 771.072 585.7280000000001z"  horiz-adv-x="1024" />

    
    <glyph glyph-name="xiazai" unicode="&#58899;" d="M938.855808 257.223618l0-270.299169c0-27.41028-22.210861-49.634444-49.621141-49.634444l-754.442728 0c-27.41028 0-49.647747 22.224164-49.647747 49.634444L85.144192 257.223618c0 27.41028 22.224164 49.634444 49.634444 49.634444s49.634444-22.224164 49.634444-49.634444l0-220.664725 655.17384 0L839.58692 257.223618c0 27.41028 22.224164 49.634444 49.634444 49.634444S938.855808 284.633898 938.855808 257.223618zM476.55165 194.972832c9.335622-9.534144 22.116717-14.905478 35.46063-14.905478 13.344936 0 26.121937 5.371334 35.461653 14.905478l198.014866 202.167442c19.179828 19.583011 18.85544 51.006697-0.732687 70.190619-19.587104 19.175735-51.016931 18.85544-70.196759-0.731664l-112.924909-115.285676L561.634444 781.075551c0 27.41028-22.224164 49.634444-49.634444 49.634444-27.41028 0-49.634444-22.224164-49.634444-49.634444l0-429.754834L349.473393 466.59923c-19.179828 19.583011-50.590212 19.902282-70.186526 0.731664-19.583011-19.179828-19.910469-50.603515-0.730641-70.190619L476.55165 194.972832z"  horiz-adv-x="1024" />

    
    <glyph glyph-name="cancel" unicode="&#59017;" d="M512 839.111111a455.111111 455.111111 0 1 1 0-910.222222A455.111111 455.111111 0 0 1 512 839.111111zM170.666667 384c0 73.614222 23.665778 141.710222 63.488 197.518222l475.363555-475.363555A338.944 338.944 0 0 0 512 42.66666699999996c-188.245333 0-341.333333 153.088-341.333333 341.333333z m619.178666-197.518222L314.481778 661.845333A338.944 338.944 0 0 0 512 725.333333c188.245333 0 341.333333-153.088 341.333333-341.333333a338.944 338.944 0 0 0-63.488-197.518222z"  horiz-adv-x="1024" />

    
    <glyph glyph-name="userp" unicode="&#58881;" d="M955.923532-26.936233000000016c1.231037-4.084015 2.091638-8.329712 2.091638-12.81691 0-24.64019-19.951401-44.602847-44.570101-44.602847-24.615631 0-44.567032 19.962657-44.567032 44.602847 0 0.049119 0.013303 0.094144 0.013303 0.143263l-1.166569 0c-11.606339 186.693006-166.216649 334.626243-355.781052 334.626243-189.568497 0-344.178807-147.933237-355.785146-334.626243l-1.055029 0c0.002047-0.049119 0.01535-0.094144 0.01535-0.143263 0-24.64019-19.952424-44.602847-44.570101-44.602847-24.615631 0-44.567032 19.962657-44.567032 44.602847 0 4.226255 0.775666 8.234545 1.873674 12.110829C80.799234 141.75886300000002 187.807387 284.79455700000005 337.194742 348.517881c-69.481468 50.685379-114.818025 132.506896-114.818025 225.116107 0 153.925718 124.738979 278.723026 278.622742 278.723026 153.874553 0 278.620695-124.796284 278.620695-278.723026 0-89.328491-42.174542-168.638815-107.507526-219.645512C828.733735 293.57964100000004 942.290023 147.50165800000002 955.923532-26.936233000000016zM690.305989 573.633988c0 104.572684-84.903715 189.338253-189.632965 189.338253-104.737436 0-189.637058-84.765569-189.637058-189.338253 0-104.563474 84.899622-189.336206 189.637058-189.336206C605.402273 384.297782 690.305989 469.070514 690.305989 573.633988z"  horiz-adv-x="1024" />

    
    <glyph glyph-name="mail" unicode="&#58889;" d="M892.915499 704.057433H130.4961c-36.734646 0-66.514903-29.780257-66.514903-66.514903v-570.537208c0-36.734646 29.780257-66.514903 66.514903-66.514903h762.419399c36.734646 0 66.514903 29.780257 66.514903 66.514903V637.5425299999999c0 36.735669-29.779234 66.514903-66.514903 66.514903z m-28.145013-63.960731c0.517793 0 1.032516-0.013303 1.544169-0.038885L511.87925 331.05413699999997 157.434635 640.067027c0.401136 0.01535 0.802272 0.030699 1.206478 0.030699h706.129373z m0-575.645552H158.641113c-16.95516 0-30.699186 13.744026-30.699186 30.699186V581.122543l362.226859-315.797409c5.995551-5.995551 13.853519-8.991792 21.710464-8.991792 7.857968-0.001023 15.715937 2.996241 21.710464 8.991792l361.879958 315.49451v-485.668285c0-16.95516-13.744026-30.700209-30.699186-30.700209z"  horiz-adv-x="1024" />

    
    <glyph glyph-name="key" unicode="&#58952;" d="M675 761c-116.897 0-212-95.103-212-212 0-46.416 15.006-89.387 40.404-124.341L188.373 109.62699999999995c-12.497-12.496-12.497-32.758 0-45.254C194.621 58.124000000000024 202.811 55 211 55s16.379 3.124 22.627 9.373l89.631 89.631 107.707-107.706c6.249-6.248 14.438-9.372 22.627-9.372s16.379 3.124 22.627 9.373c12.497 12.496 12.497 32.758 0 45.255L368.514 199.26 410.255 241l74.708-74.708c6.249-6.249 14.438-9.373 22.627-9.373s16.379 3.124 22.627 9.373c12.497 12.496 12.497 32.758 0 45.254l-74.708 74.709 92.837 92.837C583.708 352.66499999999996 627.559 337 675 337c116.897 0 212 95.103 212 212s-95.103 212-212 212z m0-360c-39.781 0-75.942 15.781-102.564 41.406a32.26 32.26 0 0 1-2.81 3.222 32.28 32.28 0 0 1-2.809 2.49C542.132 474.572 527 510.049 527 549c0 81.607 66.393 148 148 148s148-66.393 148-148-66.393-148-148-148z"  horiz-adv-x="1024" />

    
    <glyph glyph-name="pwd" unicode="&#58882;" d="M700.043636 542.72s0 183.389091-183.389091 183.389091-183.389091-183.389091-183.38909-183.389091v-78.661818H254.603636v-366.778182h524.101819V464.523636h-78.661819V542.72z m-157.323636-280.669091v-85.643636h-52.596364v85.643636c-15.36 9.309091-26.065455 25.6-26.065454 45.149091 0 28.858182 23.272727 52.596364 52.596363 52.596364 28.858182 0 52.596364-23.272727 52.596364-52.596364 0-19.549091-10.705455-36.305455-26.530909-45.149091z m104.727273 202.472727H385.861818V542.72c0.465455 21.876364 7.912727 131.258182 130.792727 131.258182s130.792727-109.381818 130.792728-130.792727v-78.661819zM512 896C229.469091 896 0 666.5309090000001 0 384s229.469091-512 512-512 512 229.469091 512 512S794.530909 896 512 896z m0-986.763636C250.414545-90.76363600000002 37.236364 122.41454499999998 37.236364 384S250.414545 858.763636 512 858.763636s474.763636-213.178182 474.763636-474.763636-213.178182-474.763636-474.763636-474.763636z"  horiz-adv-x="1024" />

    
    <glyph glyph-name="menu" unicode="&#59073;" d="M384 416H192c-52.8 0-96 43.2-96 96V704c0 52.8 43.2 96 96 96h192c52.8 0 96-43.2 96-96v-192c0-52.8-43.2-96-96-96zM192 736c-17.6 0-32-14.4-32-32v-192c0-17.6 14.4-32 32-32h192c17.6 0 32 14.4 32 32V704c0 17.6-14.4 32-32 32H192zM832 416H640c-52.8 0-96 43.2-96 96V704c0 52.8 43.2 96 96 96h192c52.8 0 96-43.2 96-96v-192c0-52.8-43.2-96-96-96zM640 736c-17.6 0-32-14.4-32-32v-192c0-17.6 14.4-32 32-32h192c17.6 0 32 14.4 32 32V704c0 17.6-14.4 32-32 32H640zM384-32H192c-52.8 0-96 43.2-96 96V256c0 52.8 43.2 96 96 96h192c52.8 0 96-43.2 96-96v-192c0-52.8-43.2-96-96-96zM192 288c-17.6 0-32-14.4-32-32v-192c0-17.6 14.4-32 32-32h192c17.6 0 32 14.4 32 32V256c0 17.6-14.4 32-32 32H192zM832-32H640c-52.8 0-96 43.2-96 96V256c0 52.8 43.2 96 96 96h192c52.8 0 96-43.2 96-96v-192c0-52.8-43.2-96-96-96zM640 288c-17.6 0-32-14.4-32-32v-192c0-17.6 14.4-32 32-32h192c17.6 0 32 14.4 32 32V256c0 17.6-14.4 32-32 32H640z"  horiz-adv-x="1024" />

    
    <glyph glyph-name="move" unicode="&#952658;" d="M958.332 384.035L812.885 529.423c-8.212 8.208-22.249 2.393-22.249-9.218v-70.05c0-7.198-5.836-13.033-13.034-13.033H575.456c-7.199 0-13.034 5.836-13.034 13.034V652.303c0 7.198 5.836 13.034 13.034 13.034h70.041c11.612 0 17.427 14.038 9.217 22.25L518.5 823.814c-5.09 5.09-13.344 5.09-18.434 0l-136.2-136.229c-8.209-8.21-2.393-22.25 9.217-22.25h70.045c7.2 0 13.034-5.835 13.034-13.033v-202.147c0-7.2-5.836-13.034-13.034-13.034H240.982c-7.197 0-13.033 5.836-13.033 13.034v70.038c0 11.612-14.041 17.428-22.251 9.216L69.485 393.183c-5.091-5.09-5.09-13.345 0.002-18.434L205.7 238.587c8.212-8.208 22.249-2.392 22.249 9.218v70.04c0 7.198 5.836 13.033 13.033 13.033h202.146c7.2 0 13.034-5.836 13.034-13.034v-202.147c0-7.198-5.836-13.034-13.034-13.034h-70.04c-11.611 0-17.427-14.04-9.216-22.25L500.1-55.815000000000055c5.09-5.09 13.345-5.09 18.434 0.001L654.72 80.41399999999999c8.208 8.212 2.393 22.248-9.218 22.248h-70.046c-7.199 0-13.034 5.836-13.034 13.034V317.84299999999996c0 7.2 5.836 13.034 13.034 13.034h202.146c7.2 0 13.034-5.836 13.034-13.034v-70.032c0-11.611 14.039-17.427 22.25-9.217l145.445 145.44z"  horiz-adv-x="1024" />

    
    <glyph glyph-name="user" unicode="&#59298;" d="M509.8790285-134.22403753000003c-284.91717205 0-516.10306602 231.18589395-516.10306603 516.10306603s231.18589395 516.10306602 516.10306603 516.10306601 516.10306602-231.18589395 516.10306601-516.10306601c0-284.21018157-231.18589395-516.10306602-516.10306601-516.10306603z m0 961.5070819c-245.32570399 0-445.40401588-200.0783119-445.40401589-445.40401587s200.0783119-445.40401588 445.40401589-445.40401589 445.40401588 200.0783119 445.40401587 445.40401589-200.0783119 445.40401588-445.40401587 445.40401587zM509.8790285 272.29550078c-123.01634725 0-222.70200795 99.68566069-222.70200795 222.70200795s99.68566069 222.70200795 222.70200795 222.70200793 222.70200795-99.68566069 222.70200793-222.70200793-99.68566069-222.70200795-222.70200793-222.70200795z m0 374.70496575c-84.13186967 0-152.0029578-67.87108813-152.00295781-152.0029578s67.87108813-152.0029578 152.00295781-152.00295781 152.0029578 67.87108813 152.00295779 152.00295781-67.87108813 152.0029578-152.00295779 152.0029578zM767.223571-54.33411087000002c-19.79573404 0-35.34952507 15.55379103-35.34952507 35.34952508v69.28506913c0 122.30935675-99.68566069 221.99501744-221.99501743 221.99501744s-221.99501744-99.68566069-221.99501745-221.99501744v-69.28506913c0-19.79573404-15.55379103-35.34952507-35.34952506-35.34952508s-35.34952507 15.55379103-35.34952508 35.34952508v69.28506913c0 161.19383433 131.50023326 292.69406757 292.69406759 292.69406758 161.19383433 0 292.69406757-131.50023326 292.69406757-292.69406758v-69.28506913c0-19.79573404-15.55379103-35.34952507-35.34952507-35.34952508z"  horiz-adv-x="1024" />

    
    <glyph glyph-name="delete-copy" unicode="&#59464;" d="M382.320274 490.642286v-384a20.626286 20.626286 0 0 0-21.577143-21.284572H317.44256a20.626286 20.626286 0 0 0-21.577143 21.357715v384a20.626286 20.626286 0 0 0 21.577143 21.284571h43.154286a20.626286 20.626286 0 0 0 21.577143-21.357714h0.073142z m172.909715 0v-384a20.626286 20.626286 0 0 0-21.650286-21.284572h-43.154286a20.626286 20.626286 0 0 0-21.577143 21.357715v384a20.626286 20.626286 0 0 0 21.577143 21.284571h43.154286a20.626286 20.626286 0 0 0 21.577143-21.357714z m172.909714 0v-384a20.626286 20.626286 0 0 0-21.650286-21.284572h-43.154286a20.626286 20.626286 0 0 0-21.577142 21.357715l-0.073143 384a20.626286 20.626286 0 0 0 21.577143 21.284571h43.227428a20.626286 20.626286 0 0 0 21.577143-21.357714z m86.381714-482.669715V640H209.483703v-631.954286a74.825143 74.825143 0 0 1 14.482286-45.056c3.364571-3.803429 5.778286-5.632 7.094857-5.632h561.883428c1.316571 0 3.657143 1.828571 7.094857 5.632a74.825143 74.825143 0 0 1 14.555429 44.982857zM360.743131 725.357714h302.518858l-32.402286 77.970286a19.017143 19.017143 0 0 1-11.483429 7.314286H405.287131a19.017143 19.017143 0 0 1-11.483428-7.314286l-33.060572-77.970286zM987.431131 704v-42.642286a20.626286 20.626286 0 0 0-21.577142-21.357714h-64.877715v-631.954286c0-36.937143-10.532571-68.754286-31.744-95.744-21.211429-26.843429-46.592-40.301714-76.288-40.301714H231.060846c-29.696 0-55.149714 13.019429-76.288 38.985143-21.211429 26.038857-31.744 57.490286-31.744 94.354286V640H58.151131A20.626286 20.626286 0 0 0 36.573989 661.357714v42.642286a20.626286 20.626286 0 0 0 21.577142 21.357714h208.676572L314.151131 836.681143c6.729143 16.457143 18.870857 30.427429 36.425143 41.984 17.554286 11.556571 35.401143 17.334857 53.394286 17.334857h216.064c17.993143 0 35.84-5.778286 53.394286-17.334857 17.554286-11.556571 29.696-25.6 36.425143-41.984l47.323428-111.323429h208.676572a20.626286 20.626286 0 0 0 21.577142-21.357714z"  horiz-adv-x="1024" />

    
    <glyph glyph-name="zoom-in" unicode="&#59466;" d="M384 128c-213.333333 0-384 170.666667-384 384s170.666667 384 384 384 384-170.666667 384-384S597.333333 128 384 128zM384 810.666667C217.6 810.666667 85.333333 678.4 85.333333 512s132.266667-298.666667 298.666667-298.666667 298.666667 132.266667 298.666667 298.666667S550.4 810.666667 384 810.666667zM981.333333-128c-12.8 0-21.333333 4.266667-29.866667 12.8L597.333333 238.93333299999995c-17.066667 17.066667-17.066667 42.666667 0 59.733333s42.666667 17.066667 59.733333 0l354.133333-354.133333c17.066667-17.066667 17.066667-42.666667 0-59.733333C1002.666667-123.73333300000002 994.133333-128 981.333333-128zM512 469.333333L256 469.333333c-25.6 0-42.666667 17.066667-42.666667 42.666667s17.066667 42.666667 42.666667 42.666667l256 0c25.6 0 42.666667-17.066667 42.666667-42.666667S537.6 469.333333 512 469.333333zM384 341.33333300000004c-25.6 0-42.666667 17.066667-42.666667 42.666667L341.333333 640c0 25.6 17.066667 42.666667 42.666667 42.666667s42.666667-17.066667 42.666667-42.666667l0-256C426.666667 358.4 409.6 341.33333300000004 384 341.33333300000004z"  horiz-adv-x="1024" />

    
    <glyph glyph-name="fuzhi" unicode="&#59392;" d="M869.864727 849.454545A107.706182 107.706182 0 0 0 977.454545 741.888v-599.412364A107.706182 107.706182 0 0 0 869.864727 34.909091H721.454545v-8.797091A107.682909 107.682909 0 0 0 613.888-81.454545H154.112A107.682909 107.682909 0 0 0 46.545455 26.112V625.524364A107.682909 107.682909 0 0 0 154.112 733.090909H302.545455v8.797091A107.706182 107.706182 0 0 0 410.135273 849.454545h459.729454zM154.135273-11.636364h459.729454A37.841455 37.841455 0 0 1 651.636364 26.112V625.524364c0 20.805818-16.942545 37.748364-37.748364 37.748363H154.135273C133.329455 663.272727 116.363636 646.330182 116.363636 625.524364v-599.412364C116.363636 5.282909 133.329455-11.636364 154.135273-11.636364zM907.636364 142.475636V741.888C907.636364 762.693818 890.670545 779.636364 869.864727 779.636364H410.135273C389.329455 779.636364 372.363636 762.693818 372.363636 741.888V733.090909h241.524364A107.682909 107.682909 0 0 0 721.454545 625.524364V104.727273h148.410182c20.805818 0 37.771636 16.919273 37.771637 37.748363zM523.636364 523.636364a34.909091 34.909091 0 0 0 0-69.818182h-279.272728a34.909091 34.909091 0 0 0 0 69.818182h279.272728z m0-162.909091a34.909091 34.909091 0 0 0 0-69.818182h-279.272728a34.909091 34.909091 0 0 0 0 69.818182h279.272728z m-93.090909-162.909091a34.909091 34.909091 0 0 0 0-69.818182h-186.181819a34.909091 34.909091 0 0 0 0 69.818182h186.181819z"  horiz-adv-x="1024" />

    
    <glyph glyph-name="exit" unicode="&#58995;" d="M588.8 486.4a25.6 25.6 0 0 1 25.6 25.6v204.8c0 42.3424-34.4576 76.8-76.8 76.8h-460.8C34.4576 793.6 0 759.1424 0 716.8v-614.4c0-38.1952 27.4944-79.872 62.5664-94.8736l264.2944-113.2544c9.1136-3.8912 18.3808-5.8368 27.2384-5.8368 10.9056 0 21.2992 2.9696 30.1568 8.8064 16.0768 10.5984 25.344 29.44 25.344 51.6096v76.8h128c42.3424 0 76.8 34.4576 76.8 76.8v204.8a25.6 25.6 0 0 1-51.2 0v-204.8a25.6 25.6 0 0 0-25.6-25.6H409.6v486.4c0 38.1952-27.4944 79.872-62.5664 94.8736L150.3232 742.4512H537.6a25.6 25.6 0 0 0 25.6-25.6v-204.8a25.6 25.6 0 0 1 25.6-25.6zM326.8608 611.0208c16.4864-7.0656 31.5392-29.9008 31.5392-47.8208v-614.4c0-5.3248-1.4336-8.2944-2.304-8.8576s-4.1472-0.7168-9.0624 1.3824l-264.2944 113.2544C66.2528 61.6448 51.2 84.4288 51.2 102.4v614.4c0 4.0448 0.9216 7.8336 2.6112 11.264l273.0496-117.0432zM939.7248 427.7248l-153.6 153.6a25.6 25.6 0 0 1-36.1984-36.1984l109.8752-109.8752H537.6a25.6 25.6 0 0 1 0-51.2h322.2016l-109.8752-109.8752a25.6 25.6 0 0 1 36.2496-36.1984l153.6 153.6a25.6 25.6 0 0 1 0 36.1984z"  horiz-adv-x="1024" />

    
    <glyph glyph-name="person" unicode="&#58908;" d="M828.3 77.79999999999995c-8 66.8-31.8 129.9-68.7 182.4-31.8 45.2-72.1 81-117.7 104.6 27.5 20.6 49.7 47.2 64.9 78 19.6 39.6 26.4 84.2 19.7 128.8-6.5 43.2-26 83.2-56.4 115.7-30.6 32.7-69.2 54.7-111.9 63.6-15.7 3.3-31.5 4.9-47 4.9-58.2 0-112.9-22.7-154-63.8s-63.8-95.8-63.8-154c0-38.3 10.2-76 29.5-108.9 14.7-25 34.3-46.9 57.6-64.4-45.6-23.7-86-59.5-117.7-104.7-36.9-52.5-60.7-115.5-68.7-182.4-2-16.3 3.2-32.8 14.2-45.1 11.1-12.5 26.9-19.7 43.5-19.7h518.8c16.6 0 32.5 7.2 43.5 19.7 10.9 12.6 16.1 29.1 14.2 45.3zM429.2 309.6c20.1 8.5 33.6 27.3 35.2 49.2 1.5 21.8-9.2 42.4-28.1 53.7-45.2 27-72.2 74-72.2 125.6 0 81.1 65.9 147 147 147 10.6 0 21.5-1.1 32.5-3.4 57.6-12 103.9-61.6 112.8-120.6 9-60.3-18-117.3-70.4-148.7-18.8-11.2-29.5-31.7-28.1-53.7 1.6-21.9 15-40.7 35.2-49.2 84.6-35.7 146-121.6 162.5-225.6H266.4C283.3 188 344.8 274 429.2 309.6z"  horiz-adv-x="1024" />

    


  </font>
</defs>
</svg>
